<?xml version="1.0" encoding="utf-8"?>
<!-- Generator: Adobe Illustrator 24.3.0, SVG Export Plug-In . SVG Version: 6.00 Build 0)  -->
<svg version="1.1" id="Layer_1" xmlns="http://www.w3.org/2000/svg" xmlns:xlink="http://www.w3.org/1999/xlink" x="0px" y="0px"
	 viewBox="0 0 946.25 720" style="enable-background:new 0 0 946.25 720;" xml:space="preserve">
<style type="text/css">
	.st0{fill:#FFFFFF;}
	.st1{fill:#FFFFFF;stroke:#000000;stroke-width:0;stroke-linecap:round;stroke-linejoin:round;}
</style>
<g>
	<path class="st0" d="M715.53,335.23H570.38H715.53v-2.03c99.2-20,148.8-66.88,148.8-131.49c0-17.03-4.26-35.07-12.77-54.13
		c-8.51-19.06-22.5-35.07-41.96-48.05c-19.46-12.97-39.73-21.01-60.82-24.12c-21.08-3.1-47.03-4.66-77.85-4.66H570.38v0H389.14
		v20.68h84.74v232.32H239.13V91.43h86.36V70.76H57.08v20.68h85.55v502.35H57.08v20.68h268.41v-20.68h-86.36V344.43h234.75v249.35
		h-84.74v20.68h181.24v0h96.9c34.6,0,63.31-1.82,86.16-5.47c22.84-3.65,45.21-12.9,67.1-27.77c21.89-14.86,37.84-32.5,47.84-52.91
		c10-20.41,15-39.8,15-58.18C883.38,395.26,827.43,353.34,715.53,335.23z M570.38,91.44h83.12c48.63,0.19,75.21,8.81,88.38,28.31
		c13.4,19.84,21.09,36.75,21.09,77.1c0,42.44-7.03,73.53-21.08,93.25c-14.06,19.73-46.36,33.89-96.9,33.89h-74.6V91.44z
		 M741.5,555.88c-19.12,18.75-48.94,37.91-94.9,37.91h-76.22v0V344.43h73.79c51.62,0,87.23,13.59,105.21,33.32
		c17.97,19.73,26.16,46.36,26.16,89.33C775.54,507.36,760.32,537.42,741.5,555.88z"/>
	<path class="st1" d="M570.38,335.23"/>
	<path class="st1" d="M715.53,335.23"/>
</g>
</svg>
